<?xml version="1.0" standalone="no"?>
<!DOCTYPE svg PUBLIC "-//W3C//DTD SVG 20010904//EN"
 "http://www.w3.org/TR/2001/REC-SVG-20010904/DTD/svg10.dtd">
<svg version="1.0" xmlns="http://www.w3.org/2000/svg"
 width="1492.000000pt" height="1492.000000pt" viewBox="0 0 1492.000000 1492.000000"
 preserveAspectRatio="xMidYMid meet">
<metadata>
Created by potrace 1.11, written by Peter Selinger 2001-2013
</metadata>
<g transform="translate(0.000000,1492.000000) scale(0.100000,-0.100000)"
fill="#000000" stroke="none">
<path d="M7328 14705 c-2 -1 -79 -6 -173 -10 -93 -3 -183 -8 -200 -10 -16 -2
-68 -6 -115 -10 -47 -3 -98 -8 -115 -10 -16 -2 -57 -7 -90 -10 -132 -13 -346
-46 -505 -76 -1167 -222 -2183 -680 -3130 -1410 -201 -155 -396 -328 -635
-565 -217 -216 -285 -288 -411 -435 -225 -265 -370 -457 -551 -729 -176 -266
-302 -486 -453 -795 -365 -744 -592 -1510 -689 -2325 -39 -318 -46 -457 -46
-855 0 -401 14 -665 50 -915 2 -19 7 -55 10 -80 18 -143 69 -429 105 -590 262
-1182 812 -2272 1607 -3188 115 -133 380 -404 574 -587 140 -134 411 -358 579
-482 134 -98 301 -213 310 -213 6 0 10 -4 10 -9 0 -5 9 -13 20 -16 11 -3 26
-12 33 -18 7 -7 22 -17 32 -23 11 -6 71 -44 133 -83 62 -39 114 -71 116 -71 3
0 39 -20 81 -45 111 -66 399 -214 555 -285 569 -261 1227 -464 1816 -560 71
-12 140 -23 154 -25 163 -28 458 -56 730 -70 86 -5 582 -5 645 -1 28 2 108 7
178 11 70 3 136 8 145 9 9 2 53 7 97 10 70 6 436 56 520 71 1282 230 2478 794
3451 1627 201 172 579 544 740 728 396 454 728 940 995 1455 286 553 503 1150
639 1760 28 125 83 421 95 515 3 25 8 56 10 70 3 22 29 248 40 355 21 201 28
895 12 1120 -73 1007 -338 1960 -787 2830 -53 105 -121 231 -150 280 -29 50
-61 104 -70 121 -195 341 -593 873 -885 1183 -164 175 -466 470 -603 589 -790
690 -1803 1230 -2822 1505 -237 64 -533 130 -675 151 -22 4 -62 11 -90 16 -45
9 -305 43 -410 55 -37 4 -123 11 -240 20 -139 11 -630 26 -637 20z"/>
</g>
</svg>
